<?xml version="1.0" encoding="utf-8"?>
<svg width="1200pt" height="1200pt" version="1.1" viewBox="0 0 1200 1200" xmlns="http://www.w3.org/2000/svg">
  <g fill="#FFC474" transform="matrix(0.651019, 0, 0, 0.651019, 209.393143, -11.91039)">
    <path d="M 915.23 1209.13 C 862.093 1201.87 816.785 1167.81 773.1 1126.93 C 773.577 1122.66 774.096 1117.99 774.752 1112.09 C 789.127 1130.85 805.705 1142.06 823.627 1154.54 C 820.897 1144.77 818.819 1137.34 816.061 1127.46 C 823.471 1133.99 830.905 1140.46 838.303 1147.02 C 844.209 1152.26 849.752 1158.78 856.819 1160.03 C 865.987 1161.64 875.823 1160.44 885.069 1160.7 C 891.014 1160.87 901.999 1164.56 907.229 1159.91 C 894.952 1147.08 878.768 1142.73 872.401 1121.76 C 887.983 1128.07 902.202 1120.9 916.381 1110 C 892.334 1107.42 870.588 1095.54 848.029 1080.51 C 858.775 1076.41 868.615 1077.48 879.4 1074.16 C 863.966 1063.7 848.755 1058.9 833.322 1052.14 C 837.943 1043.53 844.756 1040.37 848.845 1032.33 C 834.216 1039.85 819.849 1046.93 807.001 1027.81 C 807.126 1024.65 810.45 1024.22 810.071 1021.05 C 808.29 1016.56 803.505 1015 804.86 1007.56 C 814.067 1012.48 823.114 1022.73 831.508 1007.67 C 831.305 1003.71 827.551 1003.22 828.407 998.784 C 831.907 997.608 835.43 996.426 838.954 995.245 C 821.919 989.711 804.63 985.531 787.911 978.168 C 779.602 974.507 771.446 970.087 763.704 964.408 C 760.692 962.201 755.418 955.385 752.231 954.783 C 749.508 954.265 747.547 957.325 744.688 955.87 C 738.047 946.039 730.293 936.052 722.59 925.725 C 736.164 931.805 749.375 939.279 763.024 945.07 C 775.379 950.309 786.098 958.607 797.872 965.757 C 821.708 980.236 847.517 988.178 873.267 991.12 C 867.298 982.995 856.494 981.819 848.869 978.764 C 840.751 975.515 832.67 972.082 824.674 968.276 C 808.694 960.669 793.549 950.53 777.92 941.665 C 763.424 933.439 748.686 925.954 734.631 916.229 C 720.549 906.482 708.307 892.951 694.42 882.912 C 694.513 882.255 694.603 881.591 694.697 880.934 L 716.373 880.934 C 700.455 866.126 683.916 852.678 668.029 837.67 C 660.845 830.882 654.392 822.728 647.302 815.767 C 643.771 812.295 640.095 809.118 636.13 806.755 C 632.673 804.693 627.478 804.687 624.985 800.87 C 625.051 797.169 624.313 792.967 625.723 788.291 C 629.876 786.229 634.153 784.1 638.067 782.155 C 646.415 790.164 654.426 797.113 663.419 800.29 C 665.888 798.646 664.775 793.909 666.724 792.973 C 673.505 804.108 679.9 814.897 683.193 828.629 C 683.728 827.03 684.263 825.43 684.888 823.569 C 687.443 830.073 688.127 837.702 693.123 842.011 C 695.592 833.941 694.459 825.648 695.65 815.327 C 702.584 833.032 708.322 848.531 712.564 864.052 C 715.091 866.053 715.857 860.246 718.216 863.651 C 719.97 872.952 720.634 883.853 728.013 889.008 C 732.412 885.397 730.459 879.082 732.283 873.855 C 734.904 876.976 737.294 879.818 739.771 882.766 C 740.337 892.943 740.892 902.852 741.56 914.873 C 747.962 908.492 746.537 898.583 750.861 891.75 C 761.533 921.6 783.185 925.612 801.888 938.861 C 800.993 932.975 797.072 931.76 796.896 926.917 C 802.372 925.496 806.939 931.543 812.83 930.334 C 808.201 922.816 800.744 921.829 796.193 913.246 C 801.896 913.681 806.627 917.303 812.513 914.773 C 808.751 912.276 805.931 910.404 802.591 908.185 C 804.837 905.806 806.61 903.933 809.689 900.673 C 793.224 894.676 777.392 890.296 765.193 873.893 C 771.232 871.82 776.857 876.591 783.857 875.398 C 776.435 866.409 767.845 862.195 761.798 852.247 C 765.497 851.784 768.43 856.259 772.294 854.632 C 765.758 846.947 757.661 844.305 750.153 836.731 C 753.832 836.068 756.321 835.616 760.192 834.914 C 750.817 826.594 741.29 823.773 732.051 816.946 C 738.886 813.914 744.973 816.054 752.383 815.709 C 736.039 795.573 711.809 785.128 692.11 773.621 C 669.774 760.574 647.258 748.039 625.606 732.758 C 625.094 730.506 624.297 726.817 625.18 722.676 C 628.711 724.17 629.512 731.827 634.152 730.484 C 635.699 724.928 633.875 718.619 636.109 712.99 C 639.594 715.403 638.707 721.951 641.481 724.989 C 644.481 721.249 642.297 718.128 647.094 717.587 C 649.645 717.298 651.969 719.828 653.66 722.174 C 657.113 726.967 657.961 734.647 661.988 738.788 C 663.727 738.175 662.801 735.188 664.356 735.372 C 667.227 740.845 664.84 748.597 668.613 754.148 C 674.391 750.614 675.281 741.296 678.348 736.816 C 684.758 736.715 689.332 741.007 692.918 748.263 C 696.179 754.862 697.777 765.071 704.004 767.34 C 706.687 762.831 705.25 756.489 708.32 752.526 C 712.207 756.215 711.933 762.998 714.16 767.79 C 715.883 769.541 715.812 765.773 717.086 765.767 C 718.805 765.762 719.078 767.668 720.406 768.844 C 724.367 772.344 727.703 779.667 731.234 784.081 C 738.363 792.981 746.582 800.015 755.3 805.248 C 764.82 810.966 771.132 814.226 777.718 825.885 C 783.136 835.477 789.585 840.621 797.917 843.921 C 796.241 840.231 795.058 837.629 793.214 833.577 C 804.691 842.6 812.273 842.611 814.241 836.023 C 836.264 843.62 858.202 837.227 880.053 838.269 C 876.369 832.546 873.112 827.591 867.553 826.521 C 862.237 825.496 857.139 826.354 851.815 824.398 C 841.057 820.441 831.588 811.725 821.737 804.725 C 826.784 799.135 832.995 800.517 839.811 795.384 C 826.526 793.606 814.577 794.793 804.979 781.958 C 809.108 779.512 813.366 781.68 818.081 776.513 L 794.78 776.513 C 793.132 773.331 795.6 771.102 793.948 768.945 C 785.014 766.838 775.327 769.842 767.616 762.514 C 760.089 755.358 756.604 753.067 747.471 754.321 C 737.698 755.664 729.588 751.178 721.104 744.797 C 712.748 738.505 703.983 733.595 695.389 728.027 C 696.299 718.191 697.791 709.842 702.033 702.24 C 706.819 708.672 707.299 718.069 710.479 725.045 C 712.373 724.126 711.029 720.865 712.795 720.431 C 715.53 722.052 715.307 728.088 719.03 728.852 L 719.03 709.156 C 731.053 718.028 744.171 723.908 755.682 734.185 C 766.596 743.926 774.932 751.93 788.12 745.069 C 802.179 753.886 812.491 755.045 827.011 748.106 C 836.014 743.804 844.546 737.746 853.402 732.897 C 858.327 730.2 872.425 728.935 873.422 719.65 C 859.61 716.223 846.91 726.154 832.551 727.012 C 836.332 720.096 842.633 720.18 844.469 711.713 C 839.289 713.001 832.793 715.821 827.59 715.046 C 822.777 714.327 821.695 713.77 816.91 715.765 C 806.539 720.09 797.441 712.99 787.219 711.407 C 790.969 705.711 795.711 707.851 799.41 704.156 C 791.878 699.068 783.519 697.262 775.972 692.241 C 769.487 687.927 764.355 684.11 756.929 684.645 C 749.94 685.146 743.976 686.952 737.019 683.848 C 730.249 680.827 725.16 673.928 718.898 669.513 C 712.448 664.971 705.515 663.45 698.832 659.989 C 692.355 656.628 686.199 651.913 680.133 647.282 C 673.703 642.372 667.313 637.161 660.348 633.929 C 657.098 632.419 653.801 631.237 650.391 630.724 C 647.914 630.357 642.07 632.084 640.402 629.811 C 656.086 618.352 671.347 628.278 686.644 631.265 C 690.707 637.234 691.414 646.491 696.597 650.771 C 699.019 648.687 697.222 643.621 700.773 642.545 C 707.187 649.138 715.406 650.498 722.07 656.461 C 728.676 662.369 733.05 666.983 741.047 668.399 C 748.875 669.787 756.836 669.252 764.68 670.617 C 768.872 671.342 773.047 672.378 777.082 674.173 C 780.391 675.65 784.359 679.896 787.742 679.244 C 788.348 677.344 787.48 673.878 790.211 672.813 C 800.895 674.858 811.969 677.065 824.191 675.494 C 806.636 653.73 783.121 660.262 765.011 643.782 L 796.273 643.782 C 796.449 642.428 796.621 641.073 796.796 639.719 C 773.097 635.127 752.046 618.753 728.925 611.586 C 747.292 598.856 759.757 626.025 777.382 625.881 C 778.992 623.463 775.882 622.844 776.765 620.364 L 784.496 620.364 C 785.101 617.014 781.621 616.44 782.914 612.623 C 796.641 613.782 812.059 620.069 819.875 593.429 C 806.078 592.108 792.086 597.67 777.863 585.933 C 788.23 584.3 796.863 584.562 805.023 579.513 C 798.695 578.025 792.371 576.543 786.273 575.105 C 784.179 572.095 786.304 570.763 783.241 567.96 C 780.57 565.513 775.663 565.714 772.585 565.513 C 765.351 565.04 758.64 567.169 751.581 568.98 C 745.902 570.434 740.339 571.315 734.8 568.372 C 729.418 565.513 725.804 559.494 720.159 557.321 C 713.812 554.874 707.839 554.518 701.632 550.806 C 696.164 547.54 690.999 543.349 685.644 539.743 C 680.672 536.399 674.82 534.583 670.203 530.353 C 665.586 526.117 662.227 519.134 658.785 513.193 C 665.848 516.236 669.988 522.267 674.75 525.438 C 676.543 523.693 674.075 521.057 676.649 519.948 C 682.661 522.696 685.633 531.696 691.301 537.626 L 691.301 524.073 C 698.957 531.022 705.192 539.533 713.512 543.634 C 714.59 540.173 712.055 536.863 714.113 533.519 C 722.656 538.981 735.894 552.473 745.152 549.643 C 756.277 546.243 767.871 536.25 777.961 528.967 C 772.547 526.799 768.036 524.993 763.523 523.187 C 773.477 520.016 783 517.129 788.394 502.672 C 772.632 506.59 755.996 502.288 742.605 516.494 C 733.801 509.171 723.714 507.449 714.136 503.074 C 704.785 498.799 695.675 493.488 686.226 489.642 C 676.156 485.541 665.117 481.846 654.605 481.773 C 646.469 481.717 635.671 490.272 628.105 484.933 C 646.214 468.581 664.582 472.332 682.796 479.243 C 683.367 476.217 681.851 474.032 684.211 472.544 C 697.66 480.608 710.465 490.115 724.336 496.86 C 738.453 503.726 748.516 498.626 759.727 485.39 C 751.094 481.149 741.504 483.345 734.59 472.995 C 724.922 472.488 715.149 472.46 705.617 469.841 C 697.249 467.545 689.492 459.224 681.281 458.004 C 676.62 457.313 672.148 460.389 667.519 460.389 C 663.144 460.389 660.132 457.647 656.019 456.22 C 647.882 453.4 637.113 454.03 629.05 457.279 C 627.893 450.43 626.585 444.662 622.819 440.878 C 627.393 436.023 627.393 436.023 632.686 446.735 C 645.358 447.861 658.038 448.87 670.702 450.213 C 681.585 451.366 692.901 449.148 703.593 451.885 C 714.538 454.682 723.218 455.212 734.062 450.976 C 742.59 447.649 754.195 446.406 759.996 435.978 C 755.086 432.835 750.192 429.675 750.371 419.794 C 736.258 425.534 725.269 415.932 711.816 408.948 C 722.515 405.304 731.187 402.712 738.363 393.956 C 735.363 390.601 726.734 393.873 723.492 394.28 C 717.984 394.965 712.476 395.651 706.953 396.035 C 696.074 396.793 688.902 394.28 680.484 384.181 C 688.625 382.916 695.57 384.543 702.269 385.608 C 703.972 383.139 701.386 382.147 701.855 380.185 C 710.304 373.492 718.253 383.055 725.824 372.572 C 721.141 368.509 715.254 368.432 709.898 362.869 C 721.136 361.426 729.652 354.833 738.519 343.174 C 720.417 348.646 704.132 353.573 687.183 358.695 C 688.515 354.448 691.851 354.431 692.558 350.993 C 685.046 346.618 676.714 346.908 669.8 340.543 C 654.441 346.607 638.698 350.742 623.898 358.767 C 622.457 355.434 622.515 353.333 623.554 351.226 C 641.699 341.345 660.14 336.552 679.191 332.01 C 695.941 328.014 708.187 312.287 722.347 300.344 C 704.058 306.675 685.316 311.234 666.859 316.356 C 661.449 317.861 659.863 315.81 654.894 314.294 C 650.98 313.101 647.027 314.818 643.164 315.642 C 639.231 316.484 623.18 323.818 622.305 315.826 C 638.305 308.888 655.282 306.48 671.848 298.138 C 668.473 296.327 665.587 298.556 662.329 295.335 C 674.716 285.442 687.313 277.662 699.138 266.762 C 697.861 265.285 696.825 264.087 696.122 263.273 C 696.169 259.662 699.079 258.692 698.568 253.815 C 673.732 268.857 648.189 277.473 622.177 288.246 C 622.536 283.621 621.317 280.773 622.833 278.07 C 641.044 272.842 683.778 249.123 693.642 238.858 C 683.037 230.794 678.189 235.531 668.04 240.703 C 659.54 245.039 649.774 249.447 640.677 247.942 C 645.997 243.617 651.318 239.293 656.638 234.968 C 646.583 235.804 637.654 242.837 627.661 242.475 C 636.93 236.628 646.493 231.563 656.442 228.67 C 662.922 226.786 671.782 227.02 672.426 214.798 C 666.652 214.007 661.133 218.181 653.821 214.681 C 664.747 206.199 678.333 208.144 684.77 190.07 C 678.473 191.102 673.68 195.9 668.192 195.8 C 667.024 191.971 670.34 190.082 669.426 185.523 C 657.371 197.711 645.422 209.248 628.477 205.418 C 641.704 195.309 656.145 192.322 665.954 176.706 C 651.044 179.275 638.099 190.967 623.247 197.203 C 631.501 181.945 644.009 180.351 654.595 172.336 C 650.017 168.473 645.841 167.102 641.564 165.782 C 642.51 160.927 646.498 160.905 647.674 156.887 C 646.752 156.469 646.006 156.134 645.228 155.789 C 646.158 152.322 649.502 153.136 650.092 149.502 C 647.482 148.232 645.08 152.334 643.271 150.857 C 647.139 136.194 658.205 131.975 665.509 118.437 C 650.661 125.978 637.587 132.621 624.513 139.259 C 630.713 129.773 639.243 125.504 645.517 114.91 C 637.47 116.426 630.216 117.786 622.361 119.263 C 627.479 110.235 634.49 107.509 641.545 102.048 C 634.584 99.958 628.885 105.431 622.447 102.11 C 627.416 95.762 634.65 95.015 637.92 85.652 C 632.077 86.499 627.213 91.61 620.908 89.654 C 624.674 85.886 629.076 85.379 631.888 80.67 C 629.509 79.316 626.627 80.625 624.806 77.003 C 625.533 72.762 628.115 69.986 631.033 66.124 C 625.236 66.888 621.142 71.43 616.158 70.666 C 616.779 66.531 619.802 69.451 620.791 66.224 C 618.744 65.829 616.802 65.461 615.209 65.154 C 612.74 50.279 610.306 35.644 607.428 18.295 C 606.385 25.59 605.752 30.004 605.096 34.58 C 603.01 35.377 601.123 36.096 599.17 36.842 C 600.431 39.612 603.607 36.631 603.764 40.565 C 603.869 43.218 601.385 43.291 601.072 45.704 C 602.08 47.097 604.017 47.231 603.4 50.04 C 602.119 51.539 600.135 49.477 598.967 51.455 C 597.607 53.757 600.865 55.412 598.885 57.909 C 597.299 58.215 595.498 58.561 593.451 58.957 C 595.599 62.875 599.389 63.46 599.541 69.072 C 595.642 70.22 591.81 71.346 587.826 72.516 C 589.06 75.843 592.006 74.026 592.787 77.158 C 588.646 79.822 585.502 73.369 579.166 75.526 C 587.275 78.061 591.705 83.852 596.057 89.81 C 587.858 92.697 579.627 93.572 571.166 90.964 C 573.193 92.869 575.217 94.776 577.228 96.67 C 576.615 98.794 574.377 96.213 573.951 98.799 C 578.174 102.595 583.783 99.791 587.955 104.807 C 582.916 107.588 577.857 101.658 573.049 105.844 C 575.268 111.317 579.592 112.37 582.76 117.079 C 579.166 117.369 576.397 117.592 573.549 117.826 C 574.35 121.527 576.717 120.668 578.002 123.048 C 573.678 122.613 569.74 120.841 564.947 122.63 C 571.744 129.875 579.646 127.813 586.806 131.809 C 586.388 136.396 587.919 140.018 590.99 142.543 C 584.626 141.924 578.814 138.006 572.728 139.266 C 574.419 147.865 580.396 150.351 586.228 157.138 C 571.568 163.715 560.126 153.404 547.455 151.047 C 555.709 171.506 570.881 172.699 583.447 180.395 C 569.998 181.125 556.756 181.125 542.791 173.969 C 551.853 186.241 560.33 195.715 572.135 196.629 C 557.729 202.804 545.955 184.458 530.424 189.769 C 538.654 198.34 546.729 208.378 556.651 212.731 C 568.014 217.713 580.276 216.297 591.557 221.954 C 581.069 220.689 570.58 219.418 560.166 218.164 C 560.697 222.985 563.939 220.405 564.826 224.033 C 555.424 224.546 546.252 219.039 536.846 223.721 C 551.448 237.447 567.502 244.57 583.037 253.805 C 556.459 251.018 533.721 230.118 508.236 221.581 C 510.087 223.955 511.939 226.335 513.83 228.759 C 513.064 230.124 512.369 231.362 511.701 232.543 C 514.302 235.904 516.837 239.181 519.287 242.346 C 517.732 245.016 515.584 242.095 514.978 245.668 C 517.841 248.644 520.748 251.664 523.513 254.534 C 523.224 258.798 519.009 256.63 519.037 260.86 C 521.81 262.041 525.068 260.531 527.193 265.162 C 524.533 265.463 522.287 265.72 520.041 265.971 C 528.923 273.366 539.479 272.14 549.115 275.924 C 560.947 280.572 572.627 287.121 584.283 292.655 C 578.626 299.221 562.947 288.331 556.838 285.388 C 547.064 280.684 537.533 275.406 527.471 282.089 C 545.108 288.765 562.002 297.148 578.498 307.112 C 564.967 306.638 550.76 303.779 537.588 299.309 C 526.686 295.615 516.108 285.616 504.791 285.271 C 512.701 297.03 521.1 304.437 528.564 313.426 C 526.349 316.039 522.958 313.576 521.81 318.77 C 535.509 319.818 550.54 318.815 564.037 321.635 C 573.771 323.664 577.967 336.031 585.346 343.532 C 585.057 344.012 584.768 344.496 583.967 345.834 C 577.736 339.481 571.826 331.254 564.108 329.226 C 555.807 327.041 546.713 328.596 538.311 328.618 C 519.487 328.674 500.284 327.57 482.561 317.555 C 479.537 319.768 478.03 322.744 477.967 326.868 C 480.701 336.61 487.319 336.838 492.772 339.012 C 476.995 356.673 457.331 353.274 438.112 359.565 C 446.506 368.622 454.096 371.369 462.659 367.641 C 462.737 372.5 459.061 373.041 459.37 377.154 C 469.272 389.777 481.815 380.487 492.745 384.36 C 493.073 387.693 489.632 386.673 489.964 389.816 C 503.593 390.44 516.491 385.737 530.968 381.022 C 517.874 395.088 502.745 392.597 488.273 400.728 C 494.839 402.127 499.773 400.226 504.878 402.561 C 490.987 416.227 473.874 409.739 459.316 420.969 C 464.788 422.134 469.414 423.12 475.902 424.502 C 467.581 429.997 460.136 432.171 454.039 438.262 C 456.359 444.214 461.683 441.11 463.804 445.335 C 464.101 448.249 461.328 448.093 462.476 451.359 C 471.062 448.651 479.742 445.909 489.113 442.955 C 487.039 450.055 482.34 453.533 480.695 461.107 C 498.07 453.606 514.804 442.46 531.672 432.918 C 540.239 428.069 548.379 421.772 555.649 413.652 C 560.555 408.167 567.04 393.689 573.829 394.291 C 567.708 405.103 560.286 413.256 554.177 425.767 C 559.165 423.655 562.599 421.838 567.052 424.959 C 557.322 436.289 545.818 439.644 535.189 445.401 C 536.009 448.472 538.822 446.053 539.045 449.999 C 524.815 456.659 509.904 460.081 494.162 465.749 C 498.392 469.377 502.345 467.744 504.689 472.119 C 502.021 475.78 498.06 475.106 494.833 478.327 C 510.208 480.038 519.97 478.16 534.161 469.851 C 543.567 464.339 553.427 463.581 562.864 459.016 C 570.899 455.132 574.966 443.93 584.555 446.923 C 582.622 452.958 574.364 456.988 570.239 460.209 C 564.934 464.35 559.52 468.401 553.657 470.709 C 550.145 472.091 546.423 471.951 542.981 473.423 C 539.305 474.994 536.536 478.862 533.153 481.387 C 527.602 485.522 521.465 487.428 515.258 488.097 C 501.692 489.557 489.32 486.709 476.5 481.314 C 462.598 475.468 445.621 486.965 432.102 491.686 C 436.129 494.985 440.485 495.342 443.778 499.522 C 441.333 503.796 437.083 500.764 434.93 505.925 C 438.88 506.109 442.2 507.123 445.266 510.033 C 446.259 513.945 447.262 517.907 448.091 521.184 C 451.044 524.673 454.384 522.795 457.872 525.069 C 463.809 540.261 473.446 545.137 485.97 539.95 C 480.013 548.036 473.079 552.985 466.021 559.377 C 488.251 567.531 507.33 556.513 525.837 544.09 C 527.841 547.963 528.688 550.889 528.759 555.236 C 522.47 556.033 516.669 559.472 511.165 563.691 C 506.325 567.397 501.442 573.656 495.767 574.352 C 491.103 574.926 464.267 562.153 463.341 573.21 C 457.384 571.242 452.298 566.26 446.177 565.842 C 445.559 571.003 449.321 573.538 448.899 578.37 C 446.708 578.922 444.587 579.451 442.282 580.031 C 443.938 586.669 449.181 585.604 451.294 590.135 C 449.993 594.265 445.958 594.722 445.536 600.145 C 450.661 602.028 455.704 603.879 462.395 606.336 C 451.321 612.706 440.247 609.145 430.704 615.794 C 432.911 618.608 435.77 618.112 438.665 619.79 C 423.368 631.504 401.888 631.577 389.329 649.851 C 401.454 648.502 411.509 647.387 420.481 646.39 C 423.715 648.591 423.485 653.217 426.958 654.343 C 436.157 650.241 446.071 645.827 457.122 640.9 C 455.04 648.424 452.239 652.62 449.446 657.308 C 464.645 662.869 477.274 645.186 488.813 633.722 C 494.434 628.138 499.473 627.414 505.559 624.053 C 510.992 621.055 514.262 612.004 520.067 611.079 C 522.391 613.949 524.051 617.521 525.078 622.253 C 508.801 632.452 492.933 643.938 477.473 656.456 C 474.208 659.103 470.524 663.394 466.723 664.336 C 463.966 665.022 460.884 663.389 458.067 663.667 C 450.091 664.453 443.258 671.603 435.712 674.646 C 439.732 679.618 444.529 676.909 447.935 681.094 C 440.912 686.651 433.798 690.624 425.177 691.316 C 439.404 709.924 461.157 711.439 470.564 702.74 C 471.916 705.215 471.439 709.222 473.826 710.927 C 478.463 708.826 481.088 702.947 484.834 699.385 C 486.982 700.099 486.291 704.39 488.588 704.786 C 491.596 703.95 493.182 697.719 495.994 697.346 C 499.014 696.945 498.389 701.821 501.248 701.632 C 508.057 693.679 514.635 684.338 519.627 673.141 C 523.998 676.051 526.072 682.51 530.76 681.991 C 533.846 674.752 533.154 665.578 536.955 658.568 C 539.674 662.904 537.319 667.797 539.748 672.004 C 550.682 656.211 565.455 657.246 579.131 652.404 C 579.287 657.236 579.823 661.455 578.37 665.49 C 571.635 667.507 566.854 668.243 560.468 672.283 C 555.405 675.488 550.39 678.838 545.32 682.02 C 535.644 688.089 524.109 690.53 514.863 697 C 505.144 703.799 496.57 712.621 486.34 718.551 C 481.453 721.382 476.531 724.085 471.715 727.145 C 468.859 728.961 463.293 735.248 459.961 732.523 C 462.355 729.814 464.629 727.245 467.027 724.531 C 442.089 706.123 404.593 708.185 388.843 729.039 C 397.706 731.653 406.558 732.472 414.734 736.24 C 415.054 740.364 411.64 739.288 411.543 742.872 C 418.871 745.029 426.113 739.996 434.563 741.696 C 420.598 750.669 406.696 749.705 393.157 751.806 C 393.547 755.662 396.91 755.088 397.02 758.622 C 394.118 762.177 390.356 760.338 387.375 761.598 C 386.344 764.111 389.43 763.899 388.481 766.747 C 374.29 767.622 359.887 767.483 344.106 771.557 C 355.469 782.436 366.063 789.057 378.922 787.005 C 377.242 792.266 375.746 796.959 374.078 802.181 C 381.758 805.637 389.797 802.371 397.023 808.936 C 405.023 796.134 416.164 792.83 425.375 782.948 C 433.332 774.416 438.375 757.262 447.973 752.218 C 450.774 760.595 445.512 770.37 451.446 776.918 C 449.254 790.934 440.563 798.157 435.212 809.174 C 441.821 808.372 447.384 802.971 453.286 805.262 C 455.805 810.467 452.235 813.884 452.731 819.479 C 457.309 815.338 461.454 811.587 465.649 807.792 C 467.61 809.804 469.333 811.732 469.356 816.052 C 448.938 826.897 429.364 839.955 413.54 864.833 C 418.868 865.262 423.138 865.602 429.067 866.075 C 405.501 880.594 382.333 888.157 359.501 898.054 C 361.024 901.95 364.056 901.42 364.989 905.149 C 360.204 906.096 355.708 906.982 350.766 907.963 C 355.723 912.477 361.594 909.223 366.934 912.862 C 361.77 917.766 355.743 916.278 350.008 921.896 C 358.774 922.13 365.586 925.691 373.395 927.814 C 365.134 938.036 354.5 939.351 344.602 948.14 C 351.009 947.599 355.645 947.209 360.282 946.819 C 360.431 947.409 360.575 947.995 360.724 948.585 C 352.321 955.792 343.919 962.998 335.4 970.304 C 365.888 976.602 391.931 961.666 417.404 936.838 L 417.404 965.294 C 423.787 956.516 428.092 947.36 430.998 937.718 C 433.056 937.01 433.111 941.24 435.166 939.162 C 435.908 932.084 438.806 926.081 440.974 920.029 C 454.556 926.851 458.744 912.99 462.954 899.163 C 463.243 905.093 461.907 910.126 462.986 915.141 C 469.782 907.523 473.986 897.535 476.025 886.273 C 479.388 886.468 479.15 892.058 482.204 891.634 C 484.45 884.813 484.259 876.542 487.868 869.614 C 490.079 875.304 488.271 881.513 490.907 885.954 C 498.747 877.299 511.192 874.229 508.368 854.567 C 512.411 853.786 515.22 853.246 518.115 852.683 C 518.591 864.231 515.411 866.61 509.536 873.198 C 503.818 879.607 498.649 886.941 493.45 894.163 C 482.657 909.167 471.161 922.475 458.661 934.501 C 446.036 946.651 432.735 957.106 419.563 967.962 C 408.575 977.018 397.102 984.91 384.188 979.415 C 378.985 987.524 375.145 997.026 367.309 997.132 C 358.595 997.249 355.383 1001.48 349.508 1010.45 C 350.969 1013.18 353.548 1010.06 355.383 1013.92 C 342.903 1016.92 330.848 1019.81 317.879 1022.93 C 322.997 1028.5 328.488 1028.62 334.777 1032.53 C 330.129 1038.38 326.234 1043.29 321.425 1049.36 C 328.886 1047.78 335.03 1046.48 343.249 1044.75 C 337.894 1051.85 334.144 1056.82 329.851 1062.5 C 344.097 1063.46 358.066 1058.89 370.195 1048.06 C 383.023 1036.6 396.843 1027.93 409.648 1016.55 C 411.301 1026.43 409.074 1034.53 408.207 1042.51 C 410.66 1043.94 411.684 1039.45 413.957 1041.33 C 415.559 1050.53 409.344 1057.07 409.047 1065.95 C 412.051 1066.27 414.562 1063.43 417.516 1065.2 C 417.625 1073.6 412.824 1079.81 412.746 1088.66 C 419.59 1075.51 429.797 1070.18 440.137 1064.02 C 439.946 1047.78 446.993 1039.8 456.563 1035.63 C 456.919 1031.6 457.2 1028.42 457.473 1025.35 C 467.981 1020.91 464.434 1003.84 471.551 995.642 C 476.129 995.229 480.637 992.526 484.176 986.725 C 485.262 989.862 485.028 993.206 488.001 996.009 C 489.723 992.699 491.61 989.088 493.493 985.471 C 493.84 985.766 494.188 986.061 494.536 986.357 C 493.645 994.616 492.755 1002.88 491.915 1010.67 C 494.805 1013.51 496.422 1008.32 499.227 1010.06 C 499.598 1016.26 499.985 1022.68 500.376 1029.2 C 489.56 1036.94 477.04 1035.84 466.353 1044.52 C 470.7 1048.38 475.813 1047.16 479.724 1051.67 C 471.536 1057.06 462.576 1057.99 454.658 1064.02 C 456.658 1067.27 458.908 1063.91 460.173 1066.22 C 452.337 1082.3 436.693 1079.44 426.751 1093.77 C 431.263 1094.13 434.509 1094.39 438.985 1094.75 C 426.633 1107.43 414.887 1118.03 402.676 1127.81 C 404.371 1131.34 407.422 1128.98 408.418 1133.73 C 395.609 1149 374.859 1145.93 364.813 1169.89 C 374.243 1169.77 383.258 1170.64 392.375 1168.76 C 383.618 1176.4 375.285 1183.59 365.625 1188.64 C 357.676 1192.81 351.922 1198.94 348.016 1209.98 C 364.868 1213.9 378.805 1201.17 393.293 1193.08 C 394.797 1197.62 391.137 1200.37 392.801 1203.67 C 404.539 1194.36 415.594 1183.57 429.34 1178.3 C 427.407 1190.71 422.707 1199.08 417.668 1210.52 C 433.371 1198.59 448.137 1183.55 461.117 1166.1 C 468.035 1156.8 474.344 1146.58 479.64 1135.31 C 483.984 1126.06 487.496 1115.35 495.945 1112.96 C 495.504 1122.52 495.086 1131.57 494.672 1140.55 C 483.488 1150.31 475.172 1162 465.305 1174.33 C 455.77 1186.24 445.867 1197.57 436.832 1210.27 C 427.691 1223.13 422.125 1229.8 409.469 1233.64 C 398.457 1236.97 388.84 1244.6 380.375 1255.1 C 389.984 1252.55 397.949 1250.43 406.426 1248.18 C 382.981 1282.74 350.887 1281.72 320.992 1292.89 C 326.558 1298.83 331.558 1302.97 334.64 1309.49 C 341.441 1310.46 347.355 1306.87 354.109 1307.81 C 331.16 1328.6 308.214 1349.39 283.605 1371.69 C 296.746 1372.97 308.054 1374.07 321 1375.34 C 314.797 1382.19 309.809 1387.7 304.746 1393.3 C 347.199 1388.81 376.308 1351.17 404.391 1310.79 C 403.953 1326.36 398.36 1338.48 393.907 1352.56 C 396.559 1351.99 398.032 1351.67 399.54 1351.35 C 400.02 1353.4 400.438 1355.16 400.993 1357.53 C 406.668 1353.08 412.091 1348.83 417.61 1344.51 C 420.395 1346.81 421.285 1352.67 425.192 1353.75 C 429.153 1349.69 430.235 1342.09 434.317 1338.26 C 437.942 1340.77 439.836 1346.54 443.875 1347.86 C 452.008 1341.03 451.895 1323.83 461.828 1319.47 C 463.234 1311.22 460.692 1303.07 461.867 1294.59 C 464.371 1294.11 466.793 1293.64 469.133 1293.19 C 471.637 1285.16 467.051 1264.08 475.391 1262.58 C 477.399 1269.72 479.34 1276.62 481.516 1284.37 C 488.906 1276.66 494.243 1266.67 500.754 1258.45 C 504.062 1262.56 504.742 1269.2 508.488 1272.35 C 514.515 1265.39 510.695 1250.22 519.66 1246.8 C 519.953 1235.41 518.055 1224.64 519.262 1214.05 C 522.617 1209.68 525.742 1205.61 529.668 1200.5 C 529.265 1210.98 528.941 1219.42 528.613 1227.95 C 539.539 1224.49 546.832 1208.27 559.359 1211.97 C 562.097 1196.01 562.097 1196.01 568.015 1191.54 C 567.265 1204.58 568.32 1217.42 566.492 1230.09 C 547.683 1243.2 532.195 1260.88 515.89 1279.27 C 507.64 1288.58 499.07 1297.43 489.714 1304.37 C 481.397 1310.53 475.456 1314.88 471.862 1328.04 C 479.221 1323.37 485.69 1319.27 492.159 1315.17 C 480.237 1333.16 470.409 1354.03 453.003 1362.31 C 455.292 1366.98 456.983 1370.43 458.858 1374.25 C 446.581 1385.79 431.585 1389.27 419.772 1403.31 C 422.038 1404.21 423.456 1404.78 425.143 1405.45 C 419.393 1418.45 410.717 1427.23 403.858 1439.81 C 413.308 1436.27 421.686 1433.13 431.561 1429.44 C 421.671 1448.45 412.717 1465.66 402.67 1484.97 C 419.44 1473.87 434.408 1463.96 449.084 1454.25 C 450.952 1458.8 448.522 1462.02 450.377 1465.62 C 458.401 1455.69 466.326 1445.89 473.924 1436.49 C 476.795 1437.43 476.135 1442.3 478.827 1442.56 C 483.108 1436.19 485.51 1428.06 488.467 1419.63 C 491.545 1427.53 492.569 1437.03 499.631 1440.87 C 502.385 1423.71 503.377 1406.69 508.026 1390.35 C 513.241 1394.64 515.256 1403.16 521.022 1407.43 C 519.651 1391.12 518.385 1376.02 517.088 1360.6 C 520.502 1361.55 523.014 1364.69 525.932 1363.17 C 528.287 1349.88 521.018 1335.68 528.342 1323.14 C 532.018 1325.18 534.147 1330.17 537.952 1331.4 C 545.377 1320.83 546.471 1305.61 551.003 1293.63 C 554.803 1293.6 557.264 1297.61 561.065 1295.36 C 562.506 1286.52 564.037 1277.14 565.568 1267.75 C 567.658 1297.95 564.318 1330.11 563.268 1360.37 C 562.225 1390.42 561.186 1420.47 560.131 1450.53 C 559.045 1481.48 557.983 1512.45 556.799 1543.4 C 555.776 1570.19 552.045 1779.288 541.108 1801.678 L 534.475 1801.678 C 534.327 1804.258 534.202 1806.418 534.038 1809.238 C 524.975 1806.098 524.643 1817.398 521.749 1825.248 C 475.788 1834.518 429.811 1843.408 383.749 1851.638 C 402.464 1852.118 421.183 1852.378 439.905 1852.388 C 455.901 1852.398 473.87 1848.818 489.343 1855.648 C 498.284 1859.588 504.445 1861.168 513.98 1861.168 C 523.472 1861.178 532.964 1861.188 542.46 1861.198 C 560.179 1861.208 577.901 1861.228 595.62 1861.248 C 613.339 1861.258 631.061 1861.258 648.78 1861.258 C 658.08 1861.248 667.655 1862.178 676.921 1860.818 C 685.1 1859.618 693.077 1856.138 701.257 1854.638 C 736.722 1848.138 773.968 1852.378 809.687 1852.378 C 804.495 1847.488 795.179 1848.378 788.921 1847.228 C 780.061 1845.588 771.206 1843.958 762.347 1842.318 C 745.898 1839.278 729.445 1836.258 712.992 1833.258 C 704.132 1831.648 695.273 1830.038 686.41 1828.448 C 679.464 1827.198 671.344 1827.488 664.715 1824.278 C 652.891 1818.568 646.438 1791.818 642.867 1776.468 C 633.156 1734.698 634.871 1504.7 633.664 1461.26 C 632.339 1413.72 630.738 1366.19 630.738 1318.62 C 637.753 1340.49 643.98 1362.61 647.433 1387.76 C 651.163 1380.29 651.972 1372.55 655.761 1367.12 C 658.862 1372.32 659.944 1378.8 664.788 1383.22 C 665.316 1368.51 665.796 1355.04 666.292 1341.1 C 682.925 1354.14 677.026 1383.4 683.265 1404.9 C 690.82 1403.87 693.757 1394.79 699.05 1389.42 C 717.128 1432.79 734.616 1476.13 751.57 1522.3 C 752.879 1510.09 753.926 1500.31 755.082 1489.52 C 760.058 1495.69 764.16 1500.78 769.82 1507.8 C 765.265 1485.11 760.437 1465.64 757.496 1443.5 C 771.848 1461.1 785.094 1477.35 798.34 1493.59 C 822.945 1488.37 847.219 1483.23 871.492 1478.09 C 853.336 1470.01 835.789 1461.43 816.781 1450.14 C 828.785 1446.06 839.332 1446.13 849.234 1439.08 C 832.644 1441.65 823.793 1426.34 814.964 1410.42 C 823.581 1419.06 833.89 1415.85 843.546 1413.91 C 854.948 1411.61 866.429 1409.83 877.519 1405.19 C 864.148 1384.79 846.539 1380.57 828.8 1371.77 C 836.483 1370.37 842.566 1369.28 848.851 1368.14 C 846.405 1358.42 832.48 1356.2 826.558 1354.1 C 818.237 1351.16 808.132 1350.88 803.163 1339.37 C 814.558 1337.61 825.397 1335.93 837.296 1334.09 C 831.89 1327.84 825.726 1327.51 820.589 1322.19 C 828.604 1322.36 835.937 1324.45 843.327 1321.77 C 822.893 1309.96 800.175 1305.58 781.362 1288.38 C 765.12 1273.53 753.764 1250.08 737.151 1235.94 C 739.186 1229.64 740.819 1224.58 742.694 1218.76 C 746.729 1226.02 749.026 1233.73 754.604 1239.31 C 754.92 1225.37 752.287 1212.92 753.627 1199.27 C 770.537 1211.56 766.658 1237.84 774.131 1256.04 C 778.291 1251.72 779.272 1244.04 782.76 1238.89 C 787.819 1253.04 788.541 1269.98 798.643 1279.39 C 802.499 1274.47 798.206 1266.99 806.061 1266.61 C 810.889 1266.38 814.702 1272.22 818.799 1274.99 C 819.33 1268.83 815.545 1264.74 816.334 1258.64 C 829.885 1276.06 841.682 1296.27 861.064 1301.88 C 858.662 1293.8 853.189 1291.05 849.873 1284.36 C 861.74 1284.02 872.709 1282.52 883.881 1278.76 C 869.428 1277.17 855.807 1273.6 847.869 1251.52 C 862.681 1264.03 878.064 1265.78 895.443 1265.28 C 889.771 1259.28 885.439 1254.7 880.291 1249.25 C 886.67 1247.82 891.928 1252.16 897.682 1248.28 C 887.084 1247.88 882.885 1234.43 875.213 1227.43 C 890.861 1232.15 902.178 1217.88 915.236 1209.13 L 915.23 1209.13 Z M 727.39 628.825 C 720.671 628.858 713.726 629.739 708.738 618.392 C 715.711 622.293 721.55 625.559 727.39 628.825 Z M 679.316 584.813 C 678.394 582.161 677.386 579.268 676.246 575.991 C 678.468 573.411 678.847 569.599 679.062 563.741 C 687.117 574.509 693.261 585.622 703.73 588.13 C 704.757 593.229 705.746 598.145 706.757 603.183 C 684.921 606.026 678.351 602.637 675.792 587.512 C 676.199 584.631 678.414 587.133 679.316 584.815 L 679.316 584.813 Z M 623.464 391.307 C 636.691 388.493 649.694 390.516 663.023 392.165 C 664.367 398.68 668.097 400.224 672.332 401.629 C 680.953 404.493 688.078 411.9 695.391 419.144 C 672.262 407.201 649.668 391.58 624.579 400.447 C 622.723 396.819 623.293 394.294 623.465 391.307 L 623.464 391.307 Z M 556.835 261.972 C 566.081 265.756 574.925 270.861 584.202 274.004 C 573.807 276.066 564.784 271.346 556.835 261.972 Z M 572.401 368.23 C 568.971 359.168 563.128 359.062 556.936 359.313 C 538.557 360.054 520.237 361.202 502.436 368.692 C 499.584 369.891 496.682 370.649 492.975 369.339 C 510.444 357.312 528.62 354.91 546.924 353.505 C 552.662 353.065 558.436 353.394 564.158 352.775 C 572.174 351.911 575.244 363.375 583.697 366.095 C 578.822 369.11 575.748 367.956 572.4 368.229 L 572.401 368.23 Z M 490.389 920.015 C 514.553 879.041 544.182 851.844 575.518 826.163 C 569.795 848.606 549.584 860.355 536.889 873.819 C 521.393 890.255 507.194 906.377 490.389 920.015 Z M 522.834 856.57 C 526.232 843.874 531.928 833.363 536.791 823.393 C 539.693 820.785 541.346 824.206 544.299 823.872 C 548.072 813.852 554.119 804.84 555.967 791.013 C 559.471 798.877 562.889 805.365 568.764 810.034 C 553.42 826.436 535.912 837.048 522.834 856.57 Z M 549.658 1142.18 C 549.291 1141.56 548.92 1140.94 548.553 1140.31 C 554.658 1133.25 560.764 1126.2 568.17 1117.63 C 565.064 1133.46 555.502 1134.68 549.658 1142.18 Z M 567.592 1081.52 C 551.877 1100.77 536.182 1120.04 521.076 1138.58 C 520.006 1141.99 523.025 1142.21 521.447 1146.06 C 517.275 1150.71 512.232 1156.32 507.193 1161.95 C 507.06 1170.1 511.826 1161.16 512.97 1166.07 C 508.603 1169.89 504.064 1173.87 497.822 1179.34 C 500.451 1170.67 502.99 1165.44 506.818 1161.47 C 511.006 1152.17 512.815 1142.19 512.858 1130.95 C 512.901 1119.11 523.096 1103.68 531.139 1101.2 C 534.029 1100.31 537.127 1100.22 539.764 1096.04 C 539.959 1091.55 540.182 1086.35 540.459 1079.92 C 548.955 1077.16 551.639 1067.37 554.139 1056.24 C 556.893 1043.98 566.459 1041.75 572.873 1033.37 C 572.873 1046.7 572.865 1058.69 572.877 1070.67 C 572.881 1076.06 570.021 1078.54 567.592 1081.52 Z M 574.155 953.891 C 573.424 967.846 563.952 973.949 556.159 980.948 C 539.136 996.23 519.261 1003.69 504.936 1024.88 C 507.252 1013.04 513.51 1003.81 514.131 992.262 C 515.314 989.576 517.518 989.61 518.732 987.352 C 520.67 983.763 519.935 983.379 520.877 978.709 C 523.228 967.044 526.057 972.55 531.85 969 C 534.147 964.703 534.045 959.186 535.268 954.516 C 537.616 952.042 537.858 958.033 539.959 956.489 C 541.995 950.553 541.772 943.203 544.889 937.395 C 547.053 942.517 547.002 948.575 550.467 953.663 C 553.541 944.857 556.44 936.565 559.28 928.422 C 562.545 928.774 561.608 934.185 564.522 935.244 C 566.42 924.527 566.268 912.144 575.631 905.896 C 575.143 921.863 574.99 937.953 574.154 953.893 L 574.155 953.891 Z M 578.701 740.981 C 555.24 748.867 535.349 769.822 511.385 777.278 C 511.456 767.988 520.014 771.348 521.783 763.635 C 523.397 756.607 527.194 750.795 531.369 745.228 C 536.405 748.583 540.307 745.796 544.412 741.221 C 551.869 732.905 560.74 727.89 569.459 721.152 C 571.217 723.621 571.553 726.987 573.764 728.308 C 575.967 727.01 575.096 722.172 578.162 720.857 C 579.569 727.188 578.694 733.536 578.701 740.981 Z M 538.263 614.766 C 544.709 609.137 550.677 603.921 557.771 597.73 C 557.002 612.442 549.994 615.964 538.263 614.766 Z M 560.825 612.314 C 564.943 602.929 570.736 602.583 577.692 603.347 C 573.005 611.16 567.896 614.097 560.825 612.314 Z M 577.903 551.661 C 565.329 552.842 554.798 552.882 543.536 561.475 C 536.158 567.104 522.837 580.725 513.985 576.216 C 535.415 561.034 553.77 538.408 579.559 543.954 C 580.356 547.119 579.977 549.51 577.903 551.661 Z M 553.661 517.414 C 553.474 516.455 553.286 515.502 553.099 514.544 C 562.529 511.367 571.954 508.19 581.384 505.019 C 573.724 517.876 563.732 517.865 553.661 517.414 Z M 623.524 538.063 C 629.669 539.779 634.106 547.448 640.536 547.431 C 641.22 543.552 638.22 540.933 639.267 536.803 C 644.97 538.475 648.685 545.86 654.271 547.766 C 655.267 544.31 652.72 542.939 652.822 540.365 C 655.115 537.862 665.603 552.754 669.474 564.692 C 653.849 561.944 639.615 553.908 624.673 552.732 C 622.852 547.666 623.224 543.152 623.524 538.064 L 623.524 538.063 Z M 660.938 588.054 C 648.629 590.344 636.75 589.492 624.606 589.124 C 627.95 576.974 654.114 576.261 660.938 588.054 Z M 624.75 668.702 C 627.899 666.986 630.864 665.375 634.055 663.636 C 637.184 667.749 637.336 674.755 641.118 677.608 C 643.219 676.571 641.883 673.228 643.344 671.884 C 649.157 677.235 649.094 695.03 654.75 699.121 C 657.672 696.367 655.528 691.591 657.41 687.172 C 668.512 698.675 679.574 710.145 690.64 721.609 C 690.437 722.194 690.234 722.773 690.031 723.359 C 668.586 710.05 647.773 696.306 624.75 689.474 L 624.75 668.702 Z M 625.961 819.649 C 637.559 827.853 649.805 831.921 659.914 842.878 C 648.684 839.456 637.008 839.261 626.516 833.275 C 625.352 828.605 625.739 824.776 625.962 819.649 L 625.961 819.649 Z M 626.293 910.463 C 642.133 908.167 653.637 921.832 665.434 932.276 C 668.309 930.415 666.802 927.043 668.04 924.752 C 669.891 923.337 671.763 924.881 673.641 925.583 C 677.216 930.922 674.997 939.41 676.563 945.808 C 678.634 954.274 684.341 957.896 689.309 962.432 C 702.707 974.665 715.7 987.774 728.7 1000.84 C 709.415 987.64 690.18 974.264 672.044 958.024 C 659.841 947.095 641.864 923.019 626.294 926.92 L 626.294 910.462 L 626.293 910.463 Z M 667.496 1268.73 C 657.574 1254.21 646.184 1241.69 635.129 1228.84 C 631.368 1224.46 629.653 1219.88 629.731 1213.04 C 629.825 1204.67 629.274 1196.29 628.922 1185.35 C 633.551 1192.41 634.571 1199.31 638.988 1204.31 C 638.797 1200.08 638.652 1196.82 638.387 1190.92 C 645.281 1208.21 650.168 1224.42 660.293 1237.48 L 660.293 1213.84 C 669.597 1231.95 667.711 1256.16 680.273 1270.25 C 682.476 1267.69 682.085 1263.66 683.136 1260.37 C 688.976 1260.97 694.058 1263.73 699.667 1267.17 C 701.308 1275.47 703.015 1284.11 705.144 1294.89 C 691.535 1286.27 677.839 1283.86 667.496 1268.73 Z M 726.547 1232.99 C 721.352 1228.46 716.708 1224.41 711.723 1220.07 C 715.079 1217.83 717.614 1222.2 720.606 1220.04 C 712.778 1199.46 696.672 1194.81 684.379 1182.39 C 688.199 1174.26 694.856 1175.07 699.727 1170.07 C 691.973 1163.74 683.09 1163.8 675.231 1158.8 C 673.626 1156.01 676.942 1154.72 676.208 1150.75 C 658.626 1137.71 651.286 1104.83 628.431 1097.89 L 628.431 1018.23 C 633.634 1018.14 633.692 1050.01 634.794 1056.52 C 637.31 1071.35 641.513 1083.5 648.618 1094.98 L 648.618 1047.34 C 649.309 1047.24 650.001 1047.14 650.696 1047.04 C 658.829 1067.8 659.594 1093.21 669.762 1114.39 C 674.532 1105.07 674.676 1095.12 677.567 1086.36 C 683.262 1098.99 682.45 1113.32 683.618 1127.09 C 687.563 1125.81 686.086 1119.88 688.875 1117.57 C 691.547 1129.41 693.18 1141.5 698.52 1153.46 C 701.418 1145.02 699.836 1137.26 702.125 1129.9 C 705.582 1158.53 720.914 1175 733.652 1194.09 C 731.25 1207.24 728.961 1219.77 726.547 1232.99 Z M 767.777 1122.66 C 763.449 1117.65 759.594 1113.05 753.445 1109.59 C 756.543 1108.54 758.121 1108.01 759.93 1107.41 C 755.965 1100.7 747.61 1103.46 742.118 1101.19 C 737.176 1099.15 734.098 1094.31 729.27 1092.13 C 717.125 1086.67 709.278 1075.36 699.875 1063.61 C 677.176 1035.25 651.816 1012.76 627.684 987.2 C 627.176 980.763 626.945 974.649 627.695 967.349 C 633.801 973.407 637.211 982.657 643.906 986.82 C 646.348 982.278 644.395 976.939 645.926 971.45 C 658.942 988.092 668.434 1008.35 678.414 1027.72 C 681.172 1028.71 681.449 1023.61 684.367 1024.17 C 691.828 1041.26 696.133 1061.48 712.644 1058.35 C 711.984 1051.91 706.5 1054.15 705.07 1048.76 C 709.132 1045.03 713.421 1048.38 719.008 1048.24 C 711.809 1036.04 707.215 1023.75 702.305 1009.87 C 709.281 1012.39 714.176 1017.86 719.907 1021.36 C 721.079 1029.48 719.848 1037.9 722.083 1046.42 C 723.864 1047.2 725.989 1048.13 727.989 1049.01 C 730.915 1054.61 729.337 1062.47 733.504 1067.47 C 736.274 1061.69 735.743 1054.45 738.364 1046.29 C 740.321 1059.6 739.618 1071.34 738.93 1084.67 C 738.43 1094.4 740.567 1097.76 747.614 1098.34 C 751.219 1096.24 752.04 1090.25 754.915 1087.08 C 766.595 1100 767.981 1103.68 767.778 1122.66 L 767.777 1122.66 Z" style=""/>
  </g>
</svg>
